<svg id="Layer_1" data-name="Layer 1" xmlns="http://www.w3.org/2000/svg" viewBox="0 0 20.83 23.18"><title>download</title><path d="M14.77,11h.83c.72,0,1.3.78,1.3,1.73l4.46,6.13h0" transform="translate(-1.13 -0.91)" style="fill:none;stroke:#2c4144;stroke-miterlimit:10"/><path d="M7.86,11H7.37c-.72,0-1.3.78-1.3,1.73L1.8,18.91" transform="translate(-1.13 -0.91)" style="fill:none;stroke:#2c4144;stroke-miterlimit:10"/><path d="M14.77,11l-3,5.15a.55.55,0,0,1-1,0L7.86,11" transform="translate(-1.13 -0.91)" style="fill:none;stroke:#2c4144;stroke-miterlimit:10"/><path d="M14.77,11l.6-1a.55.55,0,0,0-.48-.83H13.38V2.43a1,1,0,0,0-1-1H10.54a1,1,0,0,0-1,1V9.18H7.75a.55.55,0,0,0-.48.83l.6,1" transform="translate(-1.13 -0.91)" style="fill:none;stroke:#2c4144;stroke-miterlimit:10"/><rect x="0.5" y="17.93" width="19.83" height="4.75" rx="0.4" ry="0.4" style="fill:none;stroke:#2c4144;stroke-miterlimit:10"/></svg>