<svg xmlns="http://www.w3.org/2000/svg" viewBox="0 0 28.37 28.65">
    <path d="M31.84,6.72l-3.45-3.5a1.34,1.34,0,0,0-.94-.41,1,1,0,0,0-.73.29l-1.94,2-.08.1-.07.05-2,2H6.15A2.28,2.28,0,0,0,3.88,9.54V29.16a2.28,2.28,0,0,0,2.27,2.29H25.46a2.28,2.28,0,0,0,2.27-2.29V12.67l2.14-2.18.07-.09.08-.06,1.94-2A1.17,1.17,0,0,0,31.84,6.72ZM12.39,20.17,25.27,7.09,28,9.87,15.15,22.93ZM5.45,9.54a.71.71,0,0,1,.7-.73H21.09L10.52,19.55a.88.88,0,0,0-.18.27.5.5,0,0,0,0,.1v0a.64.64,0,0,0,0,.15L10,24.42a.89.89,0,0,0,.26.69.83.83,0,0,0,.69.25l2.83-.22h.19l1.28-.09.13,0h.05l.1,0a.79.79,0,0,0,.24-.16L26.16,14.26V29.16a.71.71,0,0,1-.7.72H6.15a.71.71,0,0,1-.7-.72Zm7.22,13.9-.81-.82,0-.46,1.24,1.25ZM30.24,7.6l-1,1L26.5,5.83l1-1Z" style="fill:#2c4144" transform="translate(-3.88 -2.81)"/>
</svg>
