<svg id="Layer_1" data-name="Layer 1" xmlns="http://www.w3.org/2000/svg" viewBox="0 0 35.63 21.5"><title>financial-info</title><line x1="3.88" y1="17.25" x2="7.88" y2="17.25" style="fill:none;stroke:#fff;stroke-linecap:round;stroke-linejoin:round;stroke-width:1.5px"/><line x1="27.38" y1="4.5" x2="31.63" y2="4.5" style="fill:none;stroke:#fff;stroke-linecap:round;stroke-linejoin:round;stroke-width:1.5px"/><polyline points="2.5 0.75 0.75 0.75 0.75 20.75 34.88 20.75 34.88 18.75" style="fill:none;stroke:#fff;stroke-linecap:round;stroke-linejoin:round;stroke-width:1.5px"/><polyline points="2.5 0.75 34.88 0.75 34.88 18.75" style="fill:none;stroke:#fff;stroke-linecap:round;stroke-linejoin:round;stroke-width:1.5px"/><circle cx="17.81" cy="10.5" r="5.75" style="fill:none;stroke:#fff;stroke-linecap:round;stroke-linejoin:round;stroke-width:1.5px"/><path d="M18.82,9.26A.66.66,0,0,1,19,8.8a.63.63,0,0,1,.47-.2.69.69,0,0,1,.49.2.63.63,0,0,1,.2.47.57.57,0,0,1-.2.45.72.72,0,0,1-.49.18A.66.66,0,0,1,19,9.72.6.6,0,0,1,18.82,9.26Zm.2,1.8h1V17H19Z" transform="translate(-1.69 -2.25)" style="fill:#fff;stroke:#fff;stroke-linecap:round;stroke-linejoin:round;stroke-width:0.75px"/></svg>