<svg id="Layer_1" data-name="Layer 1" xmlns="http://www.w3.org/2000/svg" viewBox="0 0 20 22"><title>contact-book</title><path d="M3.5,1.5h15v21H3.5Zm-1,3h2m-2,3h2m-2,3h2m-2,3h2m-2,3h2m-2,3h2" transform="translate(-2 -1)" style="fill:none;stroke:#fff;stroke-linecap:round;stroke-linejoin:round"/><path d="M18.5,3.5h3v4h-3Zm0,4h3v4h-3Zm0,4h3v4h-3Zm0,4h3v4h-3Z" transform="translate(-2 -1)" style="fill:none;stroke:#fff;stroke-linecap:round;stroke-linejoin:round"/><path d="M11,14.8a5.23,5.23,0,0,1-1-.12,2.76,2.76,0,0,1-.67-.23l.39-1.14a2.27,2.27,0,0,0,.5.21,3.81,3.81,0,0,0,.77.14v-2q-.31-.14-.61-.31a2.44,2.44,0,0,1-.54-.41,1.83,1.83,0,0,1-.39-.58,2,2,0,0,1-.15-.79,1.85,1.85,0,0,1,.46-1.33A2.19,2.19,0,0,1,11,7.58V6.67h1v.87a4,4,0,0,1,.77.12,4.56,4.56,0,0,1,.61.21L13,9a3.3,3.3,0,0,0-.43-.16A3.45,3.45,0,0,0,12,8.69v1.88q.31.14.63.31a2.66,2.66,0,0,1,.56.42,2,2,0,0,1,.4.56,1.78,1.78,0,0,1,.16.78,2.07,2.07,0,0,1-.46,1.43,2.2,2.2,0,0,1-1.28.67v.93H11Zm-.39-5.39a.63.63,0,0,0,.23.5,2.75,2.75,0,0,0,.58.37V8.66a.86.86,0,0,0-.65.23A.79.79,0,0,0,10.57,9.41Zm1.87,3.37a.63.63,0,0,0-.25-.52,3.06,3.06,0,0,0-.61-.37v1.76a1,1,0,0,0,.65-.28A.83.83,0,0,0,12.44,12.78Z" transform="translate(-2 -1)" style="fill:#fff"/></svg>