<svg id="Layer_1" data-name="Layer 1" xmlns="http://www.w3.org/2000/svg" viewBox="0 0 42.64 33.87"><title>GTC-arrows</title><path d="M.36,33.58a30.39,30.39,0,0,0,8.43-7.21,22.57,22.57,0,0,0,4.44-7.1c.6-1.7,0-3.18-.74-4.63a34.41,34.41,0,0,0-9.65-11c-.35-.27-.69-.56-1-.86-1-1-.95-1.14.43-1.6,2.34-.78,4.39,0,6.36,1.16a34.3,34.3,0,0,1,9.27,8.68,39.73,39.73,0,0,1,2.54,4c1.41,2.32.69,4.51-.59,6.56a31.73,31.73,0,0,1-8,9.16,31.19,31.19,0,0,1-3.95,2.93C5.19,35.13,3.31,35.15.36,33.58Z" transform="translate(-0.36 -0.9)" style="fill:#070707"/><path d="M22.19,33.62a28.34,28.34,0,0,0,5-3.69,39.06,39.06,0,0,0,4.22-4.51,35.87,35.87,0,0,0,3.15-4.9,5.64,5.64,0,0,0,0-5.4,35.23,35.23,0,0,0-5.14-7.18,28.3,28.3,0,0,0-7.27-5.9,7.4,7.4,0,0,1,6.58-.53,19.81,19.81,0,0,1,6.8,4.92,35.15,35.15,0,0,1,4,4.44,35.78,35.78,0,0,1,3,4.92c1.2,2.67-.15,4.81-1.54,6.83a33.56,33.56,0,0,1-3.09,4.06c-2.67,2.84-5.33,5.66-8.93,7.38A6.94,6.94,0,0,1,22.19,33.62Z" transform="translate(-0.36 -0.9)" style="fill:#070707"/><path d="M11.4,33.56c3.63-1.72,6.21-4.51,8.68-7.3A19.44,19.44,0,0,0,24.38,19c.44-1.48-.12-2.8-.7-4.13-1.42-3.26-3.91-5.69-6.31-8.18a25.46,25.46,0,0,0-5.94-4.59,6.86,6.86,0,0,1,6.73-.49c3.38,1.57,5.94,4.14,8.48,6.79a40,40,0,0,1,4,5.22c1.59,2.32,2.22,4.76.63,7.4a36.43,36.43,0,0,1-5.86,7.51,34.43,34.43,0,0,1-5.8,4.83C17,34.94,14.39,35.34,11.4,33.56Z" transform="translate(-0.36 -0.9)" style="fill:#070707"/></svg>