<svg xmlns="http://www.w3.org/2000/svg" viewBox="0 0 28.43 28.43">
    <circle cx="14.22" cy="14.22" r="13.03" style="fill:none;stroke:#fff;stroke-linecap:round;stroke-linejoin:round;stroke-width:2.365px"/>
    <path d="M19.65,11.61a5.63,5.63,0,0,1-.34,1.9,11.74,11.74,0,0,1-.87,1.88,17.59,17.59,0,0,1-1.16,1.78Q16.65,18,16,18.74l-1,.75v.09l1.33-.26h3.53v2H12.18V20.12q.44-.46,1-1.08t1.11-1.31q.56-.69,1.09-1.43a16.17,16.17,0,0,0,1-1.48A9.15,9.15,0,0,0,17,13.38a4,4,0,0,0,.25-1.33,1.81,1.81,0,0,0-.43-1.24,1.75,1.75,0,0,0-1.37-.49,3.22,3.22,0,0,0-1.21.25,3.41,3.41,0,0,0-1,.64l-1-1.69a6,6,0,0,1,1.63-.95A5.84,5.84,0,0,1,16,8.21a4.57,4.57,0,0,1,1.45.22,3.26,3.26,0,0,1,1.14.64,3,3,0,0,1,.75,1.06A3.7,3.7,0,0,1,19.65,11.61Z" style="fill:#fff" transform="translate(-1.91 -1.83)"/>
</svg>
