<svg xmlns="http://www.w3.org/2000/svg" viewBox="0 0 28.43 28.43">
    <circle cx="14.22" cy="14.22" r="13.03" style="fill:none;stroke:#fff;stroke-linecap:round;stroke-linejoin:round;stroke-width:2.365px"/>
    <path d="M15.34,19.58A2.33,2.33,0,0,0,17.08,19a2,2,0,0,0,.6-1.47A1.85,1.85,0,0,0,17.05,16a3.15,3.15,0,0,0-2-.5H13.76V14.19l2.23-3,1-.83-1.45.17H12.49v-2h7V9.78l-2.59,3.48-.81.5v.09l.77-.11a4.13,4.13,0,0,1,1.22.29,2.94,2.94,0,0,1,1,.69,3.33,3.33,0,0,1,.69,1.11,4.19,4.19,0,0,1,.26,1.53,4.51,4.51,0,0,1-.36,1.88,3.71,3.71,0,0,1-1,1.33,4.17,4.17,0,0,1-1.48.79,6.23,6.23,0,0,1-1.82.26,10,10,0,0,1-1.67-.15,4.87,4.87,0,0,1-1.4-.42L13,19a5.19,5.19,0,0,0,1.06.39A5.26,5.26,0,0,0,15.34,19.58Z" style="fill:#fff" transform="translate(-1.91 -1.83)"/>
</svg>
