<svg id="Layer_1" data-name="Layer 1" xmlns="http://www.w3.org/2000/svg" viewBox="0 0 21.09 23.14"><title>plus</title><path d="M13.18,12.3l.11,2.7a.52.52,0,0,0,.37.48l2,.71c.61.22.87-.75.27-1l-2-.71.37.48-.11-2.7c0-.64-1-.64-1,0Z" transform="translate(-1.25 -0.45)" style="fill:#fff"/><path d="M8.77,12.27V15l-5,1.79a3,3,0,0,0-2,2.83v1.89h13" transform="translate(-1.25 -0.45)" style="fill:none;stroke:#fff;stroke-linecap:round;stroke-linejoin:round"/><path d="M13.79,12.09A6.35,6.35,0,0,0,16.17,7c0-3.32-2.25-6-5-6C8.66,1,6.6,3.14,6.21,6" transform="translate(-1.25 -0.45)" style="fill:none;stroke:#fff;stroke-linecap:round;stroke-linejoin:round"/><path d="M13.79,12.09a4.39,4.39,0,0,1-2.63.9c-2.77,0-5-2.69-5-6a7.21,7.21,0,0,1,.07-1" transform="translate(-1.25 -0.45)" style="fill:none;stroke:#fff;stroke-linecap:round;stroke-linejoin:round"/><path d="M6.21,6h0" transform="translate(-1.25 -0.45)" style="fill:none;stroke:#fff;stroke-linecap:round;stroke-linejoin:round"/><path d="M16.12,6.42l-.45,0c-1.71.33-2.81-.29-3.75-1.94A4.64,4.64,0,0,1,8.14,6.47,4,4,0,0,1,6.21,6" transform="translate(-1.25 -0.45)" style="fill:none;stroke:#fff;stroke-linecap:round;stroke-linejoin:round"/><circle cx="16.66" cy="18.7" r="3.94" style="fill:none;stroke:#fff;stroke-linecap:round;stroke-linejoin:round"/><line x1="16.66" y1="17.27" x2="16.66" y2="20.14" style="fill:none;stroke:#fff;stroke-linecap:round;stroke-linejoin:round"/><line x1="18.09" y1="18.7" x2="15.22" y2="18.7" style="fill:none;stroke:#fff;stroke-linecap:round;stroke-linejoin:round"/></svg>