<svg id="Layer_1" data-name="Layer 1" xmlns="http://www.w3.org/2000/svg" viewBox="0 0 23.52 27.71"><title>risk-and-insurance</title><path d="M14.34,28.71h-.11a.46.46,0,0,1-.3,0C3.78,23.9,2.53,15.58,2.48,15.23a.45.45,0,0,1,0-.06V5.65a.47.47,0,0,1,.31-.44L14.07,1a.47.47,0,0,1,.33,0L25.69,5.21a.47.47,0,0,1,.31.44v9.51a.45.45,0,0,1,0,.06c0,.35-1.3,8.67-11.45,13.43A.46.46,0,0,1,14.34,28.71ZM3.42,15.13c.09.53,1.53,8.23,10.82,12.64,9.3-4.4,10.73-12.1,10.82-12.64V6L14.24,2,3.42,6Z" transform="translate(-2.48 -1)" style="fill:#fff"/><path d="M14.24,19.33a1.88,1.88,0,0,1-1.88-1.88V7.38a1.88,1.88,0,0,1,3.76,0V17.45A1.88,1.88,0,0,1,14.24,19.33Zm0-12.9a.94.94,0,0,0-.94.94V17.45a.94.94,0,0,0,1.88,0V7.38A.94.94,0,0,0,14.24,6.44Z" transform="translate(-2.48 -1)" style="fill:#fff"/><path d="M14.24,24a1.94,1.94,0,1,1,1.94-1.94A1.94,1.94,0,0,1,14.24,24Zm0-2.94a1,1,0,1,0,1,1A1,1,0,0,0,14.24,21.09Z" transform="translate(-2.48 -1)" style="fill:#fff"/></svg>