<svg xmlns="http://www.w3.org/2000/svg" viewBox="0 0 67.75 94.55">
    <path d="M61.86,10.47H60v17.9H9.62V10.47h-1a5.73,5.73,0,0,0-5.78,5.68s0,0,0,.05V87.82a5.73,5.73,0,0,0,5.73,5.73H61.86a5.73,5.73,0,0,0,5.73-5.73h0V16.2a5.73,5.73,0,0,0-5.73-5.73Z" style="fill:none;stroke:#fff;stroke-linecap:round;stroke-linejoin:round;stroke-width:3px" transform="translate(-1.34 -0.5)"/>
    <path d="M53.42,22.79V10.47H43.28V10.1a8.1,8.1,0,0,0-16.2,0h0v.37H16.2V22.79Z" style="fill:none;stroke:#fff;stroke-linecap:round;stroke-linejoin:round;stroke-width:3px" transform="translate(-1.34 -0.5)"/>
    <rect width="47" height="3" x="10.08" y="38" style="fill:#fff"/>
    <rect width="47" height="3" x="10.08" y="51" style="fill:#fff"/>
    <rect width="47" height="3" x="10.08" y="64.5" style="fill:#fff"/>
    <rect width="47" height="3" x="10.08" y="78" style="fill:#fff"/>
</svg>
