<svg id="Layer_1" data-name="Layer 1" xmlns="http://www.w3.org/2000/svg" viewBox="0 0 28.48 26.49"><title>wellness</title><path d="M32.27,12.85A7.24,7.24,0,0,0,23.73,15a7.24,7.24,0,0,0-8.53-2.17c-4,1.75-6,6.81-4.43,11.3,2.83,8.13,12.94,13.09,12.94,13.09s10.11-4.93,13-13.05C38.25,19.67,36.28,14.61,32.27,12.85Z" transform="translate(-9.49 -11.48)" style="fill:none;stroke:#fff;stroke-linecap:round;stroke-linejoin:round;stroke-width:1.5px"/><path d="M23.25,29.66a8.72,8.72,0,0,1-1.53-.15,3.89,3.89,0,0,1-1.08-.35L21.07,28a3.66,3.66,0,0,0,.86.35,5.23,5.23,0,0,0,1.33.17V24.29q-.47-.24-.93-.5a3.81,3.81,0,0,1-.82-.64,2.87,2.87,0,0,1-.58-.87,3,3,0,0,1-.22-1.19,2.7,2.7,0,0,1,.64-1.85,3,3,0,0,1,1.92-.9V16.91h1.07v1.38a7.17,7.17,0,0,1,1.31.15,4.74,4.74,0,0,1,.92.31l-.38,1.12a4,4,0,0,0-.75-.27,5.3,5.3,0,0,0-1.1-.15V23.3q.49.25,1,.54a4.62,4.62,0,0,1,.87.67,3,3,0,0,1,.62.88A2.75,2.75,0,0,1,27,26.57a3,3,0,0,1-.68,2,3.25,3.25,0,0,1-2,1V31H23.25ZM22,21a1.46,1.46,0,0,0,.43,1.09,4.69,4.69,0,0,0,1.08.77V19.45a1.6,1.6,0,0,0-1.17.55A1.65,1.65,0,0,0,22,21Zm3.72,5.66a1.64,1.64,0,0,0-.13-.68,2,2,0,0,0-.35-.53,2.64,2.64,0,0,0-.52-.42c-.2-.12-.41-.25-.64-.36V28.5a2.12,2.12,0,0,0,1.19-.56A1.68,1.68,0,0,0,25.72,26.68Z" transform="translate(-9.49 -11.48)" style="fill:#fff"/></svg>