<svg id="Layer_1" data-name="Layer 1" xmlns="http://www.w3.org/2000/svg" viewBox="0 0 23.85 23.85"><title>wrenches</title><path d="M8.25,17.94l9.61-9.61a4,4,0,0,0,4.39-.85,3.88,3.88,0,0,0,.85-4.31l-1.91,2H19.08V2.88L21,1a4,4,0,0,0-5.24,5.24L6.13,15.82A4,4,0,0,0,.89,21.06L2.8,19.15H5.07v2.12l-2,1.91a3.94,3.94,0,0,0,4.35-.85A4,4,0,0,0,8.25,17.94ZM12,10,8.25,6.21A4,4,0,0,0,7.4,1.82,3.88,3.88,0,0,0,3.09,1l2,1.91V5.15H2.8l-1.91-2a3.94,3.94,0,0,0,.85,4.35,4,4,0,0,0,4.39.84l3.75,3.73M12,14.19l3.75,3.75A4,4,0,0,0,21,23.18l-1.92-1.91V19.15H21.2l1.91,1.91a4,4,0,0,0-5.24-5.24l-3.74-3.75" transform="translate(-0.07 -0.15)" style="fill:none;stroke:#fff;stroke-linejoin:round"/></svg>